<svg width="30" height="30" viewBox="0 0 30 30" fill="none" xmlns="http://www.w3.org/2000/svg">
<path d="M22.2703 6.73615V6.73615C24.7101 6.73615 26.593 8.88259 26.2752 11.3016L26.1573 12.1983C25.8527 14.5167 23.8767 16.25 21.5385 16.25V16.25M7.7297 6.73615V6.73615C5.28989 6.73615 3.40702 8.88259 3.72484 11.3016L3.84266 12.1983C4.14726 14.5167 6.12326 16.25 8.46154 16.25V16.25M15 20V22.5" stroke="#D2F509" stroke-width="1.2" stroke-linejoin="round"/>
<path d="M14.9999 21.4067L12.3308 23.0081C9.85759 24.4921 8.62097 25.234 8.62819 25.9501C8.63039 26.1681 8.68956 26.3817 8.79983 26.5698C9.16204 27.1875 10.6042 27.1875 13.4884 27.1875H16.5114C19.3956 27.1875 20.8378 27.1875 21.2 26.5698C21.3103 26.3817 21.3694 26.1681 21.3716 25.9501C21.3788 25.234 20.1422 24.4921 17.669 23.0081L14.9999 21.4067Z" fill="#D2F509"/>
<path fill-rule="evenodd" clip-rule="evenodd" d="M22.9871 8.63021C23.1738 6.22424 23.2671 5.02125 22.703 4.16376C22.5215 3.88774 22.2955 3.6436 22.0344 3.44122C21.2231 2.8125 20.0165 2.8125 17.6033 2.8125H12.3987C9.98547 2.8125 8.77886 2.8125 7.96758 3.44122C7.70643 3.6436 7.4805 3.88774 7.29893 4.16376C6.73485 5.02125 6.82818 6.22424 7.01485 8.63021L7.42583 13.9273C7.53296 15.308 7.58652 15.9984 7.74979 16.5742C8.36296 18.7368 10.1334 20.3752 12.337 20.8193C12.9237 20.9375 13.6161 20.9375 15.001 20.9375C16.3858 20.9375 17.0783 20.9375 17.665 20.8193C19.8685 20.3752 21.639 18.7368 22.2522 16.5742C22.4154 15.9984 22.469 15.308 22.5761 13.9273L22.9871 8.63021ZM16.4751 9.85246L15.8127 8.51029C15.5032 7.88323 15.3485 7.5697 15.116 7.5171C15.0433 7.50067 14.968 7.50067 14.8953 7.5171C14.6628 7.5697 14.5081 7.88323 14.1986 8.51029L13.5362 9.85246L12.055 10.0677C11.363 10.1682 11.017 10.2185 10.8951 10.4234C10.8571 10.4874 10.8338 10.5591 10.827 10.6333C10.8051 10.8707 11.0555 11.1147 11.5562 11.6028L12.628 12.6475L12.375 14.1227C12.2568 14.8119 12.1977 15.1565 12.3549 15.3358C12.404 15.3918 12.465 15.4361 12.5334 15.4655C12.7524 15.5596 13.0619 15.3969 13.6809 15.0715L15.0057 14.375L16.3305 15.0715C16.9494 15.3969 17.2589 15.5596 17.4779 15.4655C17.5463 15.4361 17.6073 15.3918 17.6564 15.3358C17.8136 15.1565 17.7545 14.8119 17.6363 14.1227L17.3833 12.6475L18.4551 11.6028C18.9558 11.1147 19.2062 10.8707 19.1844 10.6333C19.1775 10.5591 19.1542 10.4874 19.1162 10.4234C18.9943 10.2185 18.6483 10.1682 17.9563 10.0677L16.4751 9.85246Z" fill="#D2F509"/>
</svg>
