<svg width="30" height="30" viewBox="0 0 30 30" fill="none" xmlns="http://www.w3.org/2000/svg">
<path fill-rule="evenodd" clip-rule="evenodd" d="M15 27.1875C21.731 27.1875 27.1875 21.731 27.1875 15C27.1875 8.26903 21.731 2.8125 15 2.8125C8.26903 2.8125 2.8125 8.26903 2.8125 15C2.8125 21.731 8.26903 27.1875 15 27.1875ZM15.9375 10.625C15.9375 10.1072 15.5178 9.6875 15 9.6875C14.4822 9.6875 14.0625 10.1072 14.0625 10.625V14.0625H10.625C10.1072 14.0625 9.6875 14.4822 9.6875 15C9.6875 15.5178 10.1072 15.9375 10.625 15.9375H14.0625V19.375C14.0625 19.8928 14.4822 20.3125 15 20.3125C15.5178 20.3125 15.9375 19.8928 15.9375 19.375V15.9375H19.375C19.8928 15.9375 20.3125 15.5178 20.3125 15C20.3125 14.4822 19.8928 14.0625 19.375 14.0625H15.9375V10.625Z" fill="#D2F509"/>
</svg>
