<svg width="30" height="30" viewBox="0 0 30 30" fill="none" xmlns="http://www.w3.org/2000/svg">
<path fill-rule="evenodd" clip-rule="evenodd" d="M15 27.1875C21.731 27.1875 27.1875 21.731 27.1875 15C27.1875 8.26903 21.731 2.8125 15 2.8125C8.26903 2.8125 2.8125 8.26903 2.8125 15C2.8125 21.731 8.26903 27.1875 15 27.1875ZM16.3177 12.4053C16.6106 12.1124 16.6106 11.6376 16.3177 11.3447C16.0248 11.0518 15.5499 11.0518 15.257 11.3447L10.7874 15.8143L9.13018 14.1572C8.83729 13.8643 8.36242 13.8643 8.06952 14.1572C7.77663 14.4501 7.77663 14.9249 8.06952 15.2178L10.257 17.4053C10.5499 17.6982 11.0248 17.6982 11.3177 17.4053L16.3177 12.4053ZM21.9427 14.2803C22.2356 13.9874 22.2356 13.5126 21.9427 13.2197C21.6498 12.9268 21.1749 12.9268 20.882 13.2197L16.4124 17.6893L15.6927 16.9697C15.3998 16.6768 14.9249 16.6768 14.632 16.9697C14.3391 17.2626 14.3391 17.7374 14.632 18.0303L15.882 19.2803C16.1749 19.5732 16.6498 19.5732 16.9427 19.2803L21.9427 14.2803Z" fill="#D2F509"/>
</svg>
