<svg width="18" height="19" viewBox="0 0 18 19" fill="none" xmlns="http://www.w3.org/2000/svg">
<path fill-rule="evenodd" clip-rule="evenodd" d="M12.6284 16.3006C11.7295 17.1395 10.8623 17.8271 10.2202 18.305C10.208 18.3141 10.208 18.3141 10.2139 18.3096C10.2287 18.2987 10.2798 18.2605 10.2689 18.2684C9.4435 18.8641 8.08962 18.8641 7.26419 18.2684C7.25339 18.2606 7.30402 18.2983 7.31902 18.3095C7.32514 18.314 7.32532 18.3142 7.31295 18.305C6.67084 17.8271 5.80371 17.1395 4.90485 16.3006C3.13738 14.6509 1.12456 12.3049 0.611792 9.74143C-0.42543 4.55614 3.77498 0.502197 8.76657 0.502197C13.7582 0.502197 17.9583 4.55617 16.9213 9.74139C16.4087 12.3049 14.3959 14.6509 12.6284 16.3006ZM8.76736 12.078C10.5719 12.078 12.0347 10.6151 12.0347 8.81062C12.0347 7.00612 10.5719 5.54327 8.76736 5.54327C6.96286 5.54327 5.50001 7.00612 5.50001 8.81062C5.50001 10.6151 6.96286 12.078 8.76736 12.078Z" fill="white"/>
</svg>
