<svg width="30" height="30" viewBox="0 0 30 30" fill="none" xmlns="http://www.w3.org/2000/svg">
<path fill-rule="evenodd" clip-rule="evenodd" d="M15 27.1875C21.731 27.1875 27.1875 21.731 27.1875 15C27.1875 8.26903 21.731 2.8125 15 2.8125C8.26903 2.8125 2.8125 8.26903 2.8125 15C2.8125 21.731 8.26903 27.1875 15 27.1875ZM16.875 15C16.875 16.0355 16.0355 16.875 15 16.875C13.9645 16.875 13.125 16.0355 13.125 15C13.125 13.9645 13.9645 13.125 15 13.125C16.0355 13.125 16.875 13.9645 16.875 15ZM9.6875 15C9.6875 12.066 12.066 9.6875 15 9.6875C17.934 9.6875 20.3125 12.066 20.3125 15C20.3125 17.934 17.934 20.3125 15 20.3125C12.066 20.3125 9.6875 17.934 9.6875 15ZM15 7.8125C11.0305 7.8125 7.8125 11.0305 7.8125 15C7.8125 18.9695 11.0305 22.1875 15 22.1875C18.9695 22.1875 22.1875 18.9695 22.1875 15C22.1875 11.0305 18.9695 7.8125 15 7.8125Z" fill="#121212"/>
</svg>
