<svg width="30" height="30" viewBox="0 0 30 30" fill="none" xmlns="http://www.w3.org/2000/svg">
<path fill-rule="evenodd" clip-rule="evenodd" d="M26.0513 11.8534C23.8614 9.02489 20.0293 5.3125 14.9995 5.3125C9.96981 5.3125 6.13763 9.02488 3.9478 11.8534C3.16002 12.8709 2.76613 13.3797 2.62213 14.4663C2.5882 14.7223 2.5882 15.2777 2.62213 15.5337C2.76613 16.6203 3.16002 17.1291 3.94779 18.1466C6.13763 20.9751 9.96981 24.6875 14.9995 24.6875C20.0293 24.6875 23.8614 20.9751 26.0513 18.1466C26.839 17.1291 27.2329 16.6203 27.3769 15.5337C27.4109 15.2777 27.4109 14.7223 27.3769 14.4663C27.2329 13.3797 26.839 12.8709 26.0513 11.8534ZM14.9995 19.375C17.4158 19.375 19.3745 17.4162 19.3745 15C19.3745 12.5838 17.4158 10.625 14.9995 10.625C12.5833 10.625 10.6245 12.5838 10.6245 15C10.6245 17.4162 12.5833 19.375 14.9995 19.375Z" fill="#121212"/>
<path d="M15 6.25C19.0517 6.25 22.6065 9.19043 24.8789 11.6622C25.8876 12.7594 26.392 13.308 26.5623 14.4445C26.6039 14.7227 26.6039 15.2773 26.5623 15.5555C26.392 16.692 25.8876 17.2406 24.8789 18.3378C22.6065 20.8096 19.0517 23.75 15 23.75C10.9483 23.75 7.39352 20.8096 5.12109 18.3378C4.11235 17.2406 3.60798 16.692 3.43775 15.5555C3.39607 15.2773 3.39607 14.7227 3.43775 14.4445C3.60798 13.308 4.11235 12.7594 5.12109 11.6622C7.39352 9.19043 10.9483 6.25 15 6.25Z" stroke="#121212" stroke-width="1.875" stroke-linejoin="round"/>
</svg>
