<svg width="30" height="30" viewBox="0 0 30 30" fill="none" xmlns="http://www.w3.org/2000/svg">
<path d="M12.1875 3.75C12.1875 3.23223 11.7678 2.8125 11.25 2.8125C10.7322 2.8125 10.3125 3.23223 10.3125 3.75H12.1875ZM19.6875 3.75C19.6875 3.23223 19.2678 2.8125 18.75 2.8125C18.2322 2.8125 17.8125 3.23223 17.8125 3.75H19.6875ZM12.1875 6.25V3.75H10.3125V6.25H12.1875ZM19.6875 6.25V3.75H17.8125V6.25H19.6875Z" fill="#121212"/>
<path fill-rule="evenodd" clip-rule="evenodd" d="M27.1875 13.4375V16.25C27.1875 20.6389 27.1875 22.8334 26.1342 24.4098C25.6782 25.0923 25.0923 25.6782 24.4098 26.1342C22.8334 27.1875 20.6389 27.1875 16.25 27.1875H13.75C9.36106 27.1875 7.16658 27.1875 5.59019 26.1342C4.90775 25.6782 4.32181 25.0923 3.86581 24.4098C2.8125 22.8334 2.8125 20.6389 2.8125 16.25V13.4375C2.8125 11.6943 2.8125 10.8228 2.98519 10.1035C3.53384 7.81816 5.31816 6.03384 7.60347 5.48519C8.32276 5.3125 9.19434 5.3125 10.9375 5.3125H19.0625C20.8057 5.3125 21.6772 5.3125 22.3965 5.48519C24.6818 6.03384 26.4662 7.81816 27.0148 10.1035C27.1875 10.8228 27.1875 11.6943 27.1875 13.4375ZM8.75 12.1875C8.23223 12.1875 7.8125 12.6072 7.8125 13.125C7.8125 13.6428 8.23223 14.0625 8.75 14.0625H21.25C21.7678 14.0625 22.1875 13.6428 22.1875 13.125C22.1875 12.6072 21.7678 12.1875 21.25 12.1875H8.75ZM11.25 15.9375C10.7322 15.9375 10.3125 16.3572 10.3125 16.875C10.3125 17.3928 10.7322 17.8125 11.25 17.8125H18.75C19.2678 17.8125 19.6875 17.3928 19.6875 16.875C19.6875 16.3572 19.2678 15.9375 18.75 15.9375H11.25ZM13.125 19.6875C12.6072 19.6875 12.1875 20.1072 12.1875 20.625C12.1875 21.1428 12.6072 21.5625 13.125 21.5625H16.875C17.3928 21.5625 17.8125 21.1428 17.8125 20.625C17.8125 20.1072 17.3928 19.6875 16.875 19.6875H13.125Z" fill="#121212"/>
</svg>
