<svg width="31" height="30" viewBox="0 0 31 30" fill="none" xmlns="http://www.w3.org/2000/svg">
<path d="M13.1943 5.625C13.1943 4.58947 14.0338 3.75 15.0693 3.75V3.75C16.1049 3.75 16.9443 4.58947 16.9443 5.625V5.625C16.9443 6.66053 16.1049 7.5 15.0693 7.5V7.5C14.0338 7.5 13.1943 6.66053 13.1943 5.625V5.625Z" stroke="#D2F509" stroke-width="1.875" stroke-linecap="round" stroke-linejoin="round"/>
<path d="M7.11438 9.6967C6.38215 8.96447 6.38215 7.77728 7.11438 7.04505V7.04505C7.84662 6.31282 9.0338 6.31282 9.76604 7.04505V7.04505C10.4983 7.77728 10.4983 8.96447 9.76604 9.6967V9.6967C9.0338 10.4289 7.84662 10.4289 7.11438 9.6967V9.6967Z" stroke="#D2F509" stroke-width="1.875" stroke-linecap="round" stroke-linejoin="round"/>
<path d="M13.1943 24.375C13.1943 23.3395 14.0338 22.5 15.0693 22.5V22.5C16.1049 22.5 16.9443 23.3395 16.9443 24.375V24.375C16.9443 25.4105 16.1049 26.25 15.0693 26.25V26.25C14.0338 26.25 13.1943 25.4105 13.1943 24.375V24.375Z" stroke="#D2F509" stroke-width="1.875" stroke-linecap="round" stroke-linejoin="round"/>
<path d="M20.3726 22.955C19.6404 22.2227 19.6404 21.0355 20.3726 20.3033V20.3033C21.1049 19.5711 22.2921 19.5711 23.0243 20.3033V20.3033C23.7565 21.0355 23.7565 22.2227 23.0243 22.955V22.955C22.2921 23.6872 21.1049 23.6872 20.3726 22.955V22.955Z" stroke="#D2F509" stroke-width="1.875" stroke-linecap="round" stroke-linejoin="round"/>
<path d="M3.81934 15C3.81934 13.9645 4.6588 13.125 5.69434 13.125V13.125C6.72987 13.125 7.56934 13.9645 7.56934 15V15C7.56934 16.0355 6.72987 16.875 5.69434 16.875V16.875C4.6588 16.875 3.81934 16.0355 3.81934 15V15Z" stroke="#D2F509" stroke-width="1.875" stroke-linecap="round" stroke-linejoin="round"/>
<path d="M7.11438 22.955C6.38215 22.2227 6.38215 21.0355 7.11438 20.3033V20.3033C7.84662 19.5711 9.0338 19.5711 9.76604 20.3033V20.3033C10.4983 21.0355 10.4983 22.2227 9.76604 22.955V22.955C9.0338 23.6872 7.84662 23.6872 7.11438 22.955V22.955Z" stroke="#D2F509" stroke-width="1.875" stroke-linecap="round" stroke-linejoin="round"/>
<path d="M22.5693 15C22.5693 13.9645 23.4088 13.125 24.4443 13.125V13.125C25.4799 13.125 26.3193 13.9645 26.3193 15V15C26.3193 16.0355 25.4799 16.875 24.4443 16.875V16.875C23.4088 16.875 22.5693 16.0355 22.5693 15V15Z" stroke="#D2F509" stroke-width="1.875" stroke-linecap="round" stroke-linejoin="round"/>
<path d="M20.3726 9.6967C19.6404 8.96447 19.6404 7.77728 20.3726 7.04505V7.04505C21.1049 6.31282 22.2921 6.31282 23.0243 7.04505V7.04505C23.7565 7.77728 23.7565 8.96447 23.0243 9.6967V9.6967C22.2921 10.4289 21.1049 10.4289 20.3726 9.6967V9.6967Z" stroke="#D2F509" stroke-width="1.875" stroke-linecap="round" stroke-linejoin="round"/>
</svg>
