<svg width="132" height="24" viewBox="0 0 132 24" fill="none" xmlns="http://www.w3.org/2000/svg">
<path d="M8.38395 6.00345C8.84584 4.73955 9.07679 4.1076 9.27817 3.798C10.5599 1.82739 13.4452 1.82739 14.727 3.798C14.9283 4.1076 15.1593 4.73955 15.6212 6.00346L15.6684 6.13263C15.7084 6.24218 15.7284 6.29696 15.7493 6.34585C16.0487 7.04718 16.7209 7.51721 17.4824 7.55772C17.5355 7.56054 17.5938 7.56054 17.7105 7.56054H18.2085C18.5423 7.56054 18.7092 7.56054 18.7913 7.56469C21.8183 7.71786 23.0065 11.5651 20.593 13.3985C20.5275 13.4482 20.3897 13.5423 20.114 13.7305C20.0655 13.7637 20.0412 13.7803 20.0199 13.7956C19.3098 14.3084 19.0159 15.2237 19.2948 16.054C19.3032 16.0789 19.3144 16.1094 19.3367 16.1704C19.5768 16.8276 19.6969 17.1562 19.7384 17.3223C20.414 20.023 17.6029 22.2676 15.1187 21.011C14.9659 20.9338 14.6889 20.7548 14.1349 20.3969L13.2917 19.8523C13.0953 19.7254 12.9972 19.662 12.9008 19.6136C12.3357 19.3295 11.6695 19.3295 11.1044 19.6136C11.008 19.662 10.9098 19.7254 10.7134 19.8523L9.88727 20.3859C9.31952 20.7527 9.03565 20.9361 8.87888 21.0148C6.39851 22.2613 3.59805 20.0252 4.26465 17.3305C4.30678 17.1602 4.42942 16.8246 4.67471 16.1533C4.69819 16.0891 4.70993 16.057 4.71881 16.0304C4.99231 15.2115 4.70944 14.3095 4.01727 13.7934C3.99479 13.7767 3.96921 13.7587 3.91806 13.7227C3.62981 13.5202 3.48568 13.4189 3.41646 13.3644C1.06109 11.5105 2.25746 7.72767 5.25051 7.56531C5.33846 7.56054 5.51463 7.56054 5.86695 7.56054H6.29787C6.41142 7.56054 6.4682 7.56054 6.51988 7.55787C7.28347 7.51832 7.95769 7.04688 8.25692 6.34326C8.27718 6.29564 8.29667 6.24231 8.33564 6.13566L8.38395 6.00345Z" fill="#D2F509"/>
<path d="M35.384 6.00345C35.8458 4.73955 36.0768 4.1076 36.2782 3.798C37.5599 1.82739 40.4452 1.82739 41.727 3.798C41.9283 4.1076 42.1593 4.73955 42.6212 6.00346L42.6684 6.13263C42.7084 6.24218 42.7284 6.29696 42.7493 6.34585C43.0487 7.04718 43.7209 7.51721 44.4824 7.55772C44.5355 7.56054 44.5938 7.56054 44.7105 7.56054H45.2085C45.5423 7.56054 45.7092 7.56054 45.7913 7.56469C48.8183 7.71786 50.0065 11.5651 47.593 13.3985C47.5275 13.4482 47.3897 13.5423 47.114 13.7305C47.0655 13.7637 47.0412 13.7803 47.0199 13.7956C46.3098 14.3084 46.0159 15.2237 46.2948 16.054C46.3032 16.0789 46.3144 16.1094 46.3367 16.1704C46.5768 16.8276 46.6969 17.1562 46.7384 17.3223C47.414 20.023 44.6029 22.2676 42.1187 21.011C41.9659 20.9338 41.6889 20.7548 41.1349 20.3969L40.2917 19.8523C40.0953 19.7254 39.9972 19.662 39.9008 19.6136C39.3357 19.3295 38.6695 19.3295 38.1044 19.6136C38.008 19.662 37.9098 19.7254 37.7134 19.8523L36.8873 20.3859C36.3195 20.7527 36.0357 20.9361 35.8789 21.0148C33.3985 22.2613 30.598 20.0252 31.2646 17.3305C31.3068 17.1602 31.4294 16.8246 31.6747 16.1533C31.6982 16.0891 31.7099 16.057 31.7188 16.0304C31.9923 15.2115 31.7094 14.3095 31.0173 13.7934C30.9948 13.7767 30.9692 13.7587 30.9181 13.7227C30.6298 13.5202 30.4857 13.4189 30.4165 13.3644C28.0611 11.5105 29.2575 7.72767 32.2505 7.56531C32.3385 7.56054 32.5146 7.56054 32.867 7.56054H33.2979C33.4114 7.56054 33.4682 7.56054 33.5199 7.55787C34.2835 7.51832 34.9577 7.04688 35.2569 6.34326C35.2772 6.29564 35.2967 6.24231 35.3356 6.13566L35.384 6.00345Z" fill="#D2F509"/>
<path d="M62.384 6.00345C62.8458 4.73955 63.0768 4.1076 63.2782 3.798C64.5599 1.82739 67.4452 1.82739 68.727 3.798C68.9283 4.1076 69.1593 4.73955 69.6212 6.00346L69.6684 6.13263C69.7084 6.24218 69.7284 6.29696 69.7493 6.34585C70.0487 7.04718 70.7209 7.51721 71.4824 7.55772C71.5355 7.56054 71.5938 7.56054 71.7105 7.56054H72.2085C72.5423 7.56054 72.7092 7.56054 72.7913 7.56469C75.8183 7.71786 77.0065 11.5651 74.593 13.3985C74.5275 13.4482 74.3897 13.5423 74.114 13.7305C74.0655 13.7637 74.0412 13.7803 74.0199 13.7956C73.3098 14.3084 73.0159 15.2237 73.2948 16.054C73.3032 16.0789 73.3144 16.1094 73.3367 16.1704C73.5768 16.8276 73.6969 17.1562 73.7384 17.3223C74.414 20.023 71.6029 22.2676 69.1187 21.011C68.9659 20.9338 68.6889 20.7548 68.1349 20.3969L67.2917 19.8523C67.0953 19.7254 66.9972 19.662 66.9008 19.6136C66.3357 19.3295 65.6695 19.3295 65.1044 19.6136C65.008 19.662 64.9098 19.7254 64.7134 19.8523L63.8873 20.3859C63.3195 20.7527 63.0357 20.9361 62.8789 21.0148C60.3985 22.2613 57.598 20.0252 58.2646 17.3305C58.3068 17.1602 58.4294 16.8246 58.6747 16.1533C58.6982 16.0891 58.7099 16.057 58.7188 16.0304C58.9923 15.2115 58.7094 14.3095 58.0173 13.7934C57.9948 13.7767 57.9692 13.7587 57.9181 13.7227C57.6298 13.5202 57.4857 13.4189 57.4165 13.3644C55.0611 11.5105 56.2575 7.72767 59.2505 7.56531C59.3385 7.56054 59.5146 7.56054 59.867 7.56054H60.2979C60.4114 7.56054 60.4682 7.56054 60.5199 7.55787C61.2835 7.51832 61.9577 7.04688 62.2569 6.34326C62.2772 6.29564 62.2967 6.24231 62.3356 6.13566L62.384 6.00345Z" fill="#D2F509"/>
<path d="M89.384 6.00345C89.8458 4.73955 90.0768 4.1076 90.2782 3.798C91.5599 1.82739 94.4452 1.82739 95.727 3.798C95.9283 4.1076 96.1593 4.73955 96.6212 6.00346L96.6684 6.13263C96.7084 6.24218 96.7284 6.29696 96.7493 6.34585C97.0487 7.04718 97.7209 7.51721 98.4824 7.55772C98.5355 7.56054 98.5938 7.56054 98.7105 7.56054H99.2085C99.5423 7.56054 99.7092 7.56054 99.7913 7.56469C102.818 7.71786 104.006 11.5651 101.593 13.3985C101.528 13.4482 101.39 13.5423 101.114 13.7305C101.066 13.7637 101.041 13.7803 101.02 13.7956C100.31 14.3084 100.016 15.2237 100.295 16.054C100.303 16.0789 100.314 16.1094 100.337 16.1704C100.577 16.8276 100.697 17.1562 100.738 17.3223C101.414 20.023 98.6029 22.2676 96.1187 21.011C95.9659 20.9338 95.6889 20.7548 95.1349 20.3969L94.2917 19.8523C94.0953 19.7254 93.9972 19.662 93.9008 19.6136C93.3357 19.3295 92.6695 19.3295 92.1044 19.6136C92.008 19.662 91.9098 19.7254 91.7134 19.8523L90.8873 20.3859C90.3195 20.7527 90.0357 20.9361 89.8789 21.0148C87.3985 22.2613 84.598 20.0252 85.2646 17.3305C85.3068 17.1602 85.4294 16.8246 85.6747 16.1533C85.6982 16.0891 85.7099 16.057 85.7188 16.0304C85.9923 15.2115 85.7094 14.3095 85.0173 13.7934C84.9948 13.7767 84.9692 13.7587 84.9181 13.7227C84.6298 13.5202 84.4857 13.4189 84.4165 13.3644C82.0611 11.5105 83.2575 7.72767 86.2505 7.56531C86.3385 7.56054 86.5146 7.56054 86.867 7.56054H87.2979C87.4114 7.56054 87.4682 7.56054 87.5199 7.55787C88.2835 7.51832 88.9577 7.04688 89.2569 6.34326C89.2772 6.29564 89.2967 6.24231 89.3356 6.13566L89.384 6.00345Z" fill="#D2F509"/>
<path d="M116.384 6.00345C116.846 4.73955 117.077 4.1076 117.278 3.798C118.56 1.82739 121.445 1.82739 122.727 3.798C122.928 4.1076 123.159 4.73955 123.621 6.00346L123.668 6.13263C123.708 6.24218 123.728 6.29696 123.749 6.34585C124.049 7.04718 124.721 7.51721 125.482 7.55772C125.536 7.56054 125.594 7.56054 125.71 7.56054H126.209C126.542 7.56054 126.709 7.56054 126.791 7.56469C129.818 7.71786 131.006 11.5651 128.593 13.3985C128.528 13.4482 128.39 13.5423 128.114 13.7305C128.066 13.7637 128.041 13.7803 128.02 13.7956C127.31 14.3084 127.016 15.2237 127.295 16.054C127.303 16.0789 127.314 16.1094 127.337 16.1704C127.577 16.8276 127.697 17.1562 127.738 17.3223C128.414 20.023 125.603 22.2676 123.119 21.011C122.966 20.9338 122.689 20.7548 122.135 20.3969L121.292 19.8523C121.095 19.7254 120.997 19.662 120.901 19.6136C120.336 19.3295 119.669 19.3295 119.104 19.6136C119.008 19.662 118.91 19.7254 118.713 19.8523L117.887 20.3859C117.32 20.7527 117.036 20.9361 116.879 21.0148C114.399 22.2613 111.598 20.0252 112.265 17.3305C112.307 17.1602 112.429 16.8246 112.675 16.1533C112.698 16.0891 112.71 16.057 112.719 16.0304C112.992 15.2115 112.709 14.3095 112.017 13.7934C111.995 13.7767 111.969 13.7587 111.918 13.7227C111.63 13.5202 111.486 13.4189 111.416 13.3644C109.061 11.5105 110.257 7.72767 113.251 7.56531C113.338 7.56054 113.515 7.56054 113.867 7.56054H114.298C114.411 7.56054 114.468 7.56054 114.52 7.55787C115.283 7.51832 115.958 7.04688 116.257 6.34326C116.277 6.29564 116.297 6.24231 116.336 6.13566L116.384 6.00345Z" fill="#D2F509"/>
</svg>
