<svg width="30" height="30" viewBox="0 0 30 30" fill="none" xmlns="http://www.w3.org/2000/svg">
<path d="M5.13424 20.0083C5.15965 19.9511 5.17235 19.9225 5.18424 19.8962C6.52531 16.9342 9.4667 15.0227 12.7181 15.0002C12.7469 15 12.7782 15 12.8408 15H16.4629C16.5254 15 16.5567 15 16.5855 15.0002C19.8369 15.0227 22.7783 16.9342 24.1194 19.8962C24.1312 19.9225 24.144 19.9511 24.1694 20.0083V20.0083C24.1969 20.0703 24.2107 20.1013 24.2206 20.1242C25.3953 22.8546 23.4151 25.9017 20.4428 25.9372C20.4179 25.9375 20.384 25.9375 20.3161 25.9375H8.9875C8.91961 25.9375 8.88566 25.9375 8.86079 25.9372C5.88855 25.9017 3.90834 22.8546 5.08305 20.1242C5.09288 20.1013 5.10667 20.0703 5.13424 20.0083V20.0083Z" stroke="#D2F509" stroke-width="1.66667" stroke-linejoin="round"/>
<path d="M11.006 7.70833C11.006 5.6948 12.6383 4.0625 14.6518 4.0625C16.6653 4.0625 18.2976 5.6948 18.2976 7.70833C18.2976 9.72187 16.6653 11.3542 14.6518 11.3542C12.6383 11.3542 11.006 9.72187 11.006 7.70833Z" stroke="#D2F509" stroke-width="1.66667" stroke-linejoin="round"/>
</svg>
